<svg width="192" height="192" viewBox="0 0 192 192" fill="none" xmlns="http://www.w3.org/2000/svg">
  <rect width="192" height="192" rx="24" fill="#7c5cff"/>
  <circle cx="96" cy="96" r="60" fill="white" opacity="0.9"/>
  <path d="M96 60c-19.88 0-36 16.12-36 36s16.12 36 36 36 36-16.12 36-36-16.12-36-36-36zm0 12c13.25 0 24 10.75 24 24s-10.75 24-24 24-24-10.75-24-24 10.75-24 24-24z" fill="#7c5cff"/>
  <path d="M96 84c-6.63 0-12 5.37-12 12s5.37 12 12 12 12-5.37 12-12-5.37-12-12-12zm0 6c3.31 0 6 2.69 6 6s-2.69 6-6 6-6-2.69-6-6 2.69-6 6-6z" fill="#7c5cff"/>
  <circle cx="96" cy="96" r="3" fill="#7c5cff"/>
</svg>
