<svg width="512" height="512" viewBox="0 0 512 512" fill="none" xmlns="http://www.w3.org/2000/svg">
  <rect width="512" height="512" rx="64" fill="#7c5cff"/>
  <circle cx="256" cy="256" r="160" fill="white" opacity="0.9"/>
  <path d="M256 160c-53.02 0-96 42.98-96 96s42.98 96 96 96 96-42.98 96-96-42.98-96-96-96zm0 32c35.35 0 64 28.65 64 64s-28.65 64-64 64-64-28.65-64-64 28.65-64 64-64z" fill="#7c5cff"/>
  <path d="M256 224c-17.67 0-32 14.33-32 32s14.33 32 32 32 32-14.33 32-32-14.33-32-32-32zm0 16c8.84 0 16 7.16 16 16s-7.16 16-16 16-16-7.16-16-16 7.16-16 16-16z" fill="#7c5cff"/>
  <circle cx="256" cy="256" r="8" fill="#7c5cff"/>
</svg>
